{
  "accessors": [
    {
      "bufferView": 2,
      "componentType": 5126,
      "count": 14894,
      "max": [
        0.5681949853897095,
        -0.13914500176906586,
        0.45445701479911804
      ],
      "min": [
        -0.01632319949567318,
        -0.74823397397995,
        -0.0001523910032119602
      ],
      "type": "VEC3"
    },
    {
      "bufferView": 2,
      "byteOffset": 178728,
      "componentType": 5126,
      "count": 14894,
      "max": [
        0.9998007416725159,
        0.9995689988136292,
        0.9999978542327881
      ],
      "min": [
        -0.9997443556785583,
        -0.9996224641799927,
        -0.9998383522033691
      ],
      "type": "VEC3"
    },
    {
      "bufferView": 1,
      "componentType": 5126,
      "count": 14894,
      "max": [
        233.5760040283203,
        233.57000732421875
      ],
      "min": [
        -266.1610107421875,
        -266.16400146484375
      ],
      "type": "VEC2"
    },
    {
      "bufferView": 0,
      "componentType": 5125,
      "count": 83184,
      "type": "SCALAR"
    },
    {
      "bufferView": 2,
      "byteOffset": 357456,
      "componentType": 5126,
      "count": 2714,
      "max": [
        0.5764409899711609,
        -0.13119499385356903,
        0.009145880118012428
      ],
      "min": [
        -0.024328600615262985,
        -0.756447970867157,
        -0.0006170039996504784
      ],
      "type": "VEC3"
    },
    {
      "bufferView": 2,
      "byteOffset": 390024,
      "componentType": 5126,
      "count": 2714,
      "max": [
        0.9985336065292358,
        0.999060869216919,
        0.9999879002571106
      ],
      "min": [
        -0.9983418583869934,
        -0.9990556240081787,
        -1.0
      ],
      "type": "VEC3"
    },
    {
      "bufferView": 1,
      "byteOffset": 119152,
      "componentType": 5126,
      "count": 2714,
      "max": [
        1.03125,
        1.0
      ],
      "min": [
        0.03125,
        0.0
      ],
      "type": "VEC2"
    },
    {
      "bufferView": 0,
      "byteOffset": 332736,
      "componentType": 5125,
      "count": 14184,
      "type": "SCALAR"
    },
    {
      "bufferView": 2,
      "byteOffset": 422592,
      "componentType": 5126,
      "count": 12931,
      "max": [
        0.5440679788589478,
        -0.18370899558067322,
        0.8233330249786377
      ],
      "min": [
        0.016716400161385536,
        -0.717149019241333,
        0.4243069887161255
      ],
      "type": "VEC3"
    },
    {
      "bufferView": 2,
      "byteOffset": 577764,
      "componentType": 5126,
      "count": 12931,
      "max": [
        0.9997351169586182,
        0.9986084699630737,
        0.9999629855155945
      ],
      "min": [
        -0.9997956156730652,
        -0.9976537823677063,
        -0.9999586343765259
      ],
      "type": "VEC3"
    },
    {
      "bufferView": 1,
      "byteOffset": 140864,
      "componentType": 5126,
      "count": 12931,
      "max": [
        1.0,
        1.0
      ],
      "min": [
        0.5,
        0.0
      ],
      "type": "VEC2"
    },
    {
      "bufferView": 0,
      "byteOffset": 389472,
      "componentType": 5125,
      "count": 77040,
      "type": "SCALAR"
    }
  ],
  "asset": {
    "extras": {
      "author": "Zuo Modern (https://sketchfab.com/zuo)",
      "license": "CC-BY-NC-ND-4.0 (http://creativecommons.org/licenses/by-nc-nd/4.0/)",
      "source": "https://sketchfab.com/3d-models/zip-dining-chair-white-100322-f7df7115995b4ab1948e7b9f27707994",
      "title": "Zip Dining Chair White - 100322"
    },
    "generator": "Sketchfab-12.68.0",
    "version": "2.0"
  },
  "bufferViews": [
    {
      "buffer": 0,
      "byteLength": 697632,
      "name": "floatBufferViews",
      "target": 34963
    },
    {
      "buffer": 0,
      "byteLength": 244312,
      "byteOffset": 697632,
      "byteStride": 8,
      "name": "floatBufferViews",
      "target": 34962
    },
    {
      "buffer": 0,
      "byteLength": 732936,
      "byteOffset": 941944,
      "byteStride": 12,
      "name": "floatBufferViews",
      "target": 34962
    }
  ],
  "buffers": [
    {
      "byteLength": 1674880,
      "uri": "scene.bin"
    }
  ],
  "materials": [
    {
      "doubleSided": true,
      "name": "Metal",
      "pbrMetallicRoughness": {
        "baseColorFactor": [
          0.6950726913370524,
          0.6950726913370524,
          0.6950726913370524,
          1.0
        ],
        "roughnessFactor": 0.0
      }
    },
    {
      "doubleSided": true,
      "name": "plastico_032negro",
      "pbrMetallicRoughness": {
        "baseColorFactor": [
          0.0075952,
          0.0075952,
          0.0075952,
          1.0
        ],
        "metallicFactor": 0.0,
        "roughnessFactor": 0.984
      }
    },
    {
      "doubleSided": true,
      "name": "silla",
      "pbrMetallicRoughness": {
        "baseColorFactor": [
          0.6883809390301974,
          0.7058281280709513,
          0.6609162842817966,
          1.0
        ],
        "metallicFactor": 0.0,
        "roughnessFactor": 0.054821758150304545
      }
    }
  ],
  "meshes": [
    {
      "name": "Object_0",
      "primitives": [
        {
          "attributes": {
            "NORMAL": 1,
            "POSITION": 0,
            "TEXCOORD_0": 2
          },
          "indices": 3,
          "material": 0,
          "mode": 4
        }
      ]
    },
    {
      "name": "Object_1",
      "primitives": [
        {
          "attributes": {
            "NORMAL": 5,
            "POSITION": 4,
            "TEXCOORD_0": 6
          },
          "indices": 7,
          "material": 1,
          "mode": 4
        }
      ]
    },
    {
      "name": "Object_2",
      "primitives": [
        {
          "attributes": {
            "NORMAL": 9,
            "POSITION": 8,
            "TEXCOORD_0": 10
          },
          "indices": 11,
          "material": 2,
          "mode": 4
        }
      ]
    }
  ],
  "nodes": [
    {
      "children": [
        1
      ],
      "matrix": [
        1.0,
        0.0,
        0.0,
        0.0,
        0.0,
        2.220446049250313e-16,
        -1.0,
        0.0,
        0.0,
        1.0,
        2.220446049250313e-16,
        0.0,
        0.0,
        0.0,
        0.0,
        1.0
      ],
      "name": "Sketchfab_model"
    },
    {
      "children": [
        2,
        3,
        4
      ],
      "name": "100322.obj.cleaner.materialmerger.gles"
    },
    {
      "mesh": 0,
      "name": "Object_2"
    },
    {
      "mesh": 1,
      "name": "Object_3"
    },
    {
      "mesh": 2,
      "name": "Object_4"
    }
  ],
  "scene": 0,
  "scenes": [
    {
      "name": "Sketchfab_Scene",
      "nodes": [
        0
      ]
    }
  ]
}
